<svg xmlns="http://www.w3.org/2000/svg" width="170" height="95.786" viewBox="0 0 170 95.786">
  <g id="Grupo_70" data-name="Grupo 70" transform="translate(-162.367 -73.597)">
    <path id="Trazado_1" data-name="Trazado 1" d="M219.823,309.6v52.166a29.221,29.221,0,0,1-8.57,20.671,27.921,27.921,0,0,1-40.306,0,29.227,29.227,0,0,1-8.57-20.671L162.367,308h20.4a.818.818,0,0,1,0,1.6H163.533v52.166a28.063,28.063,0,0,0,8.232,19.852,26.767,26.767,0,0,0,38.673,0,28.063,28.063,0,0,0,8.232-19.852V309.6h-18.89a.826.826,0,1,1-.05-1.6h20.1v1.6Z" transform="translate(0 -221.648)" fill="#fff"/>
    <path id="Trazado_2" data-name="Trazado 2" d="M577.059,202.039a6.543,6.543,0,0,1,5.072,10.667h-2.013a4.95,4.95,0,0,0,.57-.493,5.131,5.131,0,1,0-7.257,0,4.945,4.945,0,0,0,.57.493h-2.013a6.541,6.541,0,0,1,5.072-10.667" transform="translate(-385.961 -121.457)" fill="#fff"/>
    <path id="Trazado_3" data-name="Trazado 3" d="M676.8,73.6h0c.439,0,.8.247.8.553V78.57c0,.305-.359.554-.8.554s-.8-.249-.8-.554V74.15c0-.305.359-.553.8-.553" transform="translate(-485.705)" fill="#fff" fill-rule="evenodd"/>
    <path id="Trazado_4" data-name="Trazado 4" d="M542.177,108.559h0c.354-.262.791-.276.972-.032l2.634,3.55c.182.245.039.659-.313.921s-.791.276-.971.033l-2.634-3.551c-.181-.245-.042-.659.312-.921" transform="translate(-358.786 -32.866)" fill="#fff" fill-rule="evenodd"/>
    <path id="Trazado_5" data-name="Trazado 5" d="M463.271,204.3h0c.154-.412.513-.662.8-.555l4.142,1.551c.284.107.391.532.237.943s-.514.662-.8.555l-4.14-1.551c-.284-.107-.391-.532-.237-.943" transform="translate(-284.474 -123.05)" fill="#fff" fill-rule="evenodd"/>
    <path id="Trazado_6" data-name="Trazado 6" d="M765.949,108.559h0c-.354-.262-.791-.276-.971-.032l-2.634,3.55c-.182.245-.041.659.313.921s.791.276.971.033l2.634-3.551c.182-.245.042-.659-.313-.921" transform="translate(-567.275 -32.866)" fill="#fff" fill-rule="evenodd"/>
    <path id="Trazado_7" data-name="Trazado 7" d="M823.3,204.3h0c-.154-.412-.514-.662-.8-.555l-4.142,1.551c-.284.107-.391.532-.237.943s.514.662.8.555l4.14-1.551c.284-.107.391-.532.237-.943" transform="translate(-620.027 -123.05)" fill="#fff" fill-rule="evenodd"/>
    <path id="Trazado_8" data-name="Trazado 8" d="M452.691,1097.822c-.238-.008-1.226-.014-2.472-.018-2.085-.007-6.65-.008-6.872-.008a8.075,8.075,0,0,0,0,16.149,8.174,8.174,0,0,0,1.241-.095,8.074,8.074,0,0,0,2.212-.679,5.837,5.837,0,0,0,.976-.558,11.361,11.361,0,0,0,2.3,1,6.959,6.959,0,0,0,1.966.332,8.075,8.075,0,0,0,.649-16.123m-6.419,16.918a7.023,7.023,0,0,1-.255,2.4,5.514,5.514,0,0,1-.708,1.514c.837-.054,1.677-.083,2.527-.083q1.227,0,2.469.074a6.744,6.744,0,0,1-.585-1.422,7.107,7.107,0,0,1-.25-2.483,13.255,13.255,0,0,1-1.662-.676c-.154.085-.312.167-.472.242a9.32,9.32,0,0,1-1.064.429m2.384,5.265v3.385a.618.618,0,1,1-1.235,0V1120q-.636.008-1.264.037a.669.669,0,0,1-.112.161l-2.4,2.483a.619.619,0,0,1-.874.014h0a.621.621,0,0,1-.013-.875l1.6-1.655q-1.447.138-2.875.387c-1.025.249-1.2-1.167-.241-1.4q.991-.174,2-.293a6.492,6.492,0,0,0,.571-.6,4.929,4.929,0,0,0,.967-1.6,5.155,5.155,0,0,0,.195-1.588l-.195.033a9.485,9.485,0,0,1-1.427.109,9.337,9.337,0,0,1,0-18.674c.154,0,3.482,0,6.872.012.717,0,1.354.005,1.823.01v-.022a9.337,9.337,0,0,1,0,18.674,6.991,6.991,0,0,1-1.324-.137,5.275,5.275,0,0,0,.193,1.666,5.706,5.706,0,0,0,1.387,2.084q1.162.128,2.338.325c1.029.214.721,1.675-.234,1.405q-1.37-.231-2.718-.363l1.524,1.575a.619.619,0,0,1-.889.86l-2.4-2.481a.626.626,0,0,1-.075-.093q-.6-.031-1.189-.043" transform="translate(-256.881 -967.309)" fill="#fff" fill-rule="evenodd"/>
    <path id="Trazado_9" data-name="Trazado 9" d="M747.062,615.775c.095,0,.264,0,.505.009s.5,0,.788,0h1.662c.145.375.295.747.442,1.113s.3.738.455,1.113l3.467,8.246,3.336-8.416c.137-.339.27-.684.4-1.027s.258-.688.384-1.029h1.542c.308,0,.6,0,.86,0s.459-.009.57-.009l.026.442a4.66,4.66,0,0,0-.849.125,1.016,1.016,0,0,0-.487.259.877.877,0,0,0-.216.492,4.728,4.728,0,0,0-.037.8l.247,8.8a2.035,2.035,0,0,0,.08.522.69.69,0,0,0,.238.345,1.164,1.164,0,0,0,.5.205,6.449,6.449,0,0,0,.849.089l-.026.483c-.143,0-.313-.005-.507-.009s-.4,0-.617,0-.422-.005-.641-.009-.422,0-.616,0c-.161,0-.326,0-.5,0s-.347.009-.517.009-.33,0-.483,0-.286.009-.4.009l-.037-.455a3.238,3.238,0,0,0,.7-.126.8.8,0,0,0,.4-.268.923.923,0,0,0,.172-.491,7.54,7.54,0,0,0,.017-.792l-.249-8.353q-1.066,2.66-2.1,5.278t-2.066,5.314l-.571.08q-.353-.931-1.683-4.093t-2.508-5.964l-.272,7.573a5.566,5.566,0,0,0,.024.96,1.011,1.011,0,0,0,.208.524.807.807,0,0,0,.449.232,6.544,6.544,0,0,0,.758.1l-.025.483c-.257,0-.538-.005-.835-.013s-.645-.013-1.033-.013c-.305,0-.628,0-.963.013s-.646.013-.926.013l-.037-.455a7.1,7.1,0,0,0,.813-.126.846.846,0,0,0,.5-.295,1.425,1.425,0,0,0,.258-.666,11.022,11.022,0,0,0,.095-1.23l.247-6.762q.012-.47,0-.8a3.7,3.7,0,0,0-.061-.576,1.669,1.669,0,0,0-.133-.412,1.357,1.357,0,0,0-.22-.317,1.189,1.189,0,0,0-.582-.339,4.565,4.565,0,0,0-.816-.117Z" transform="translate(-552.782 -512.694)" fill="#fff"/>
    <path id="Trazado_10" data-name="Trazado 10" d="M774.018,617.582h3.5l-1.624-5.2Zm3.733.751h-4l-.939,2.575a4.5,4.5,0,0,0-.243.938.477.477,0,0,0,.3.474,3.506,3.506,0,0,0,1.067.171l-.038.482q-.446,0-1-.013c-.372-.008-.739-.013-1.108-.013-.3,0-.608.005-.925.013s-.629.013-.93.013l-.026-.455a4.143,4.143,0,0,0,.774-.125,1.13,1.13,0,0,0,.525-.308,2.5,2.5,0,0,0,.422-.626c.132-.264.288-.617.462-1.059l3.44-8.891c.1-.263.176-.492.247-.692s.139-.406.218-.635l.818-.08c.091.421.183.805.285,1.154s.193.666.285.956l2.727,8.536c.121.382.232.68.326.9a1.484,1.484,0,0,0,.343.5,1.083,1.083,0,0,0,.492.242,7.386,7.386,0,0,0,.774.1l-.038.482c-.338,0-.716,0-1.124-.013s-.818-.013-1.233-.013c-.339,0-.685.005-1.033.013s-.689.013-1.033.013l-.033-.455a3.541,3.541,0,0,0,.971-.175.452.452,0,0,0,.293-.455,2.668,2.668,0,0,0-.079-.339,3.122,3.122,0,0,1-.1-.42Z" transform="translate(-574.5 -507.328)" fill="#fff"/>
    <path id="Trazado_11" data-name="Trazado 11" d="M363.555,625.544a2.319,2.319,0,0,0,.576-.125.729.729,0,0,0,.346-.259,1.186,1.186,0,0,0,.167-.488,5.41,5.41,0,0,0,.046-.8v-8.8a3.109,3.109,0,0,0-.037-.524.692.692,0,0,0-.158-.345.741.741,0,0,0-.354-.205,3.375,3.375,0,0,0-.607-.089l.02-.483c.1,0,.213.005.354.009s.288,0,.446,0,.33.005.5.009.322.005.47.005c.114,0,.245,0,.388-.005s.283-.009.422-.009.272,0,.4,0,.23-.009.313-.009l.029.457a2.22,2.22,0,0,0-.572.125.761.761,0,0,0-.349.259,1.116,1.116,0,0,0-.17.487,5.31,5.31,0,0,0-.047.792v8.813a3.1,3.1,0,0,0,.038.524.672.672,0,0,0,.159.343.7.7,0,0,0,.35.207,3.384,3.384,0,0,0,.608.088l-.017.483c-.1,0-.218,0-.361-.008s-.3-.005-.46-.005-.32,0-.482-.008-.32-.005-.464-.005c-.122,0-.253,0-.392.005s-.279.008-.418.008-.274,0-.4.005-.23.008-.314.008Z" transform="translate(-190.228 -510.469)" fill="#fff"/>
    <path id="Trazado_12" data-name="Trazado 12" d="M441.273,619.01v-3.928a4.072,4.072,0,0,0-.028-.524.723.723,0,0,0-.126-.349.537.537,0,0,0-.284-.2,2.185,2.185,0,0,0-.52-.093l.016-.483c.086,0,.188,0,.3.009s.243,0,.376,0,.275,0,.416.009.275,0,.4,0c.1,0,.21,0,.33,0s.239-.009.355-.009.233,0,.338,0,.2-.009.267-.009l.017.455a1.716,1.716,0,0,0-.495.126.619.619,0,0,0-.289.258,1.325,1.325,0,0,0-.137.492,7.02,7.02,0,0,0-.036.8v8.8a3.655,3.655,0,0,0,.032.522.784.784,0,0,0,.13.345.557.557,0,0,0,.3.205,2.58,2.58,0,0,0,.529.089l-.014.483c-.084,0-.187,0-.309-.009s-.251,0-.387,0-.278,0-.418-.009-.279,0-.4,0c-.105,0-.22,0-.337,0s-.236.009-.353.009-.224,0-.326,0-.193.009-.266.009l-.025-.455a1.611,1.611,0,0,0,.489-.126.626.626,0,0,0,.287-.258,1.233,1.233,0,0,0,.133-.484c.021-.205.033-.472.033-.8v-4.094h-4.248v4.6a3.862,3.862,0,0,0,.026.522.73.73,0,0,0,.13.35.525.525,0,0,0,.288.2,2.21,2.21,0,0,0,.528.095l-.016.47c-.084,0-.188-.005-.305-.009l-.382-.014-.417-.013c-.139,0-.275,0-.4,0-.1,0-.212,0-.333,0s-.243.009-.366.009-.228,0-.333,0-.2.009-.27.009l-.016-.455a1.707,1.707,0,0,0,.495-.126.638.638,0,0,0,.288-.258,1.323,1.323,0,0,0,.139-.488,7.344,7.344,0,0,0,.034-.8v-8.8a3.583,3.583,0,0,0-.032-.524.783.783,0,0,0-.13-.349.574.574,0,0,0-.3-.205,2.578,2.578,0,0,0-.53-.089l.017-.47h.347c.133,0,.27,0,.4.009s.264,0,.392,0h.7c.122,0,.245,0,.363,0s.232-.009.337-.009h.271l.025.442a1.678,1.678,0,0,0-.5.126.657.657,0,0,0-.293.258,1.329,1.329,0,0,0-.134.492,7.928,7.928,0,0,0-.032.8v3.447Z" transform="translate(-257.926 -510.478)" fill="#fff"/>
    <path id="Trazado_13" data-name="Trazado 13" d="M584.715,617.691c.122.451.249.872.385,1.256a4.546,4.546,0,0,0,.487,1,2.312,2.312,0,0,0,.662.666,1.676,1.676,0,0,0,.913.241,1.3,1.3,0,0,0,.65-.17,1.724,1.724,0,0,0,.524-.487,2.491,2.491,0,0,0,.351-.738,3.308,3.308,0,0,0,.128-.938,3.264,3.264,0,0,0-.166-1.1,2.573,2.573,0,0,0-.434-.8,3.114,3.114,0,0,0-.618-.58c-.229-.166-.466-.33-.708-.488q-.4-.261-.82-.576a3.71,3.71,0,0,1-.738-.746,3.907,3.907,0,0,1-.537-1,3.808,3.808,0,0,1-.209-1.335,4.239,4.239,0,0,1,.233-1.462,3.09,3.09,0,0,1,.628-1.068,2.568,2.568,0,0,1,.92-.658,2.817,2.817,0,0,1,1.112-.224,4.16,4.16,0,0,1,1.06.126,8.881,8.881,0,0,1,1.041.334q-.028.416-.046.778c-.013.242-.02.479-.021.707s-.007.47-.009.71,0,.5,0,.778l-.384.054a3.915,3.915,0,0,0-.588-2.073,1.592,1.592,0,0,0-1.36-.688,1.3,1.3,0,0,0-.6.142,1.39,1.39,0,0,0-.472.421,2.066,2.066,0,0,0-.313.656,2.881,2.881,0,0,0-.115.85,3.456,3.456,0,0,0,.138,1.055,2.488,2.488,0,0,0,.389.742,2.749,2.749,0,0,0,.568.545c.214.151.441.3.676.451.292.183.584.384.879.6a4.359,4.359,0,0,1,.792.774,3.853,3.853,0,0,1,.567,1.037,3.962,3.962,0,0,1,.218,1.391,4.478,4.478,0,0,1-.255,1.577,3.736,3.736,0,0,1-.671,1.167,2.817,2.817,0,0,1-.964.729,2.671,2.671,0,0,1-1.118.25,4.086,4.086,0,0,1-1.034-.142,10.216,10.216,0,0,1-1.137-.4c-.04-.576-.092-1.117-.151-1.622s-.141-1.046-.239-1.622Z" transform="translate(-399.011 -505.807)" fill="#fff"/>
    <path id="Trazado_14" data-name="Trazado 14" d="M496.942,557.092a.687.687,0,0,0,.257-.1.424.424,0,0,0,.154-.2,1.43,1.43,0,0,0,.074-.372c.015-.155.021-.36.021-.617v-6.743a3.83,3.83,0,0,0-.017-.4.7.7,0,0,0-.071-.263.35.35,0,0,0-.156-.158.9.9,0,0,0-.27-.068l.009-.37c.042,0,.095,0,.156.007s.129,0,.2,0,.146,0,.22.007.145,0,.209,0,.109,0,.172,0,.125-.007.188-.007.121,0,.176,0,.1-.007.139-.007l.012.349a.666.666,0,0,0-.253.1.417.417,0,0,0-.155.2,1.273,1.273,0,0,0-.076.372c-.014.155-.021.357-.021.607v6.753a3.821,3.821,0,0,0,.017.4.745.745,0,0,0,.071.264.338.338,0,0,0,.155.157.9.9,0,0,0,.271.068l-.009.371c-.042,0-.1,0-.159-.008s-.132,0-.2,0-.143,0-.214-.008-.143,0-.208,0-.112,0-.174,0-.124.008-.187.008-.121,0-.176,0-.1.008-.139.008Z" transform="translate(-316.372 -448.421)" fill="#fff"/>
    <path id="Trazado_15" data-name="Trazado 15" d="M477.844,576.308a1.681,1.681,0,0,0-.038-.276.371.371,0,0,0-.083-.166.314.314,0,0,0-.153-.08,1.173,1.173,0,0,0-.253-.022h-2.773a.651.651,0,0,0-.164.018.19.19,0,0,0-.108.076.408.408,0,0,0-.066.168,2.53,2.53,0,0,0-.028.291l-.151-.009c0-.046,0-.1,0-.17s0-.138,0-.214,0-.158,0-.238v-.41c0-.067,0-.134,0-.2s0-.132,0-.191,0-.11,0-.15l.142-.013a1.785,1.785,0,0,0,.039.274.366.366,0,0,0,.083.166.273.273,0,0,0,.153.082,1.07,1.07,0,0,0,.249.024h2.777a.648.648,0,0,0,.164-.018.189.189,0,0,0,.108-.076.4.4,0,0,0,.066-.167,2.857,2.857,0,0,0,.028-.292l.151.009c0,.046,0,.1,0,.172s0,.141,0,.22,0,.154,0,.232v.409c0,.067,0,.134,0,.2s0,.132,0,.189,0,.111,0,.151Z" transform="translate(-294.712 -473.863)" fill="#fff"/>
    <path id="Trazado_16" data-name="Trazado 16" d="M1420.283,1602.215v-10.591h2.279l3.068,8.193,3.068-8.193h2.25v10.591H1429.5l.1-9.19-3.44,9.19h-1.087l-3.427-9.19.105,9.19Z" transform="translate(-1189.51 -1435.476)" fill="#fff"/>
    <path id="Trazado_17" data-name="Trazado 17" d="M1420.283,1602.215v-10.591h2.279l3.068,8.193,3.068-8.193h2.25v10.591H1429.5l.1-9.19-3.44,9.19h-1.087l-3.427-9.19.105,9.19Z" transform="translate(-1189.51 -1435.476)" fill="#fff"/>
    <path id="Trazado_18" data-name="Trazado 18" d="M1650.136,1591.629v6.732c0,1.743.387,2.562,1.891,2.562,1.417,0,1.8-.818,1.8-2.562v-6.732h1.534v6.718a4.641,4.641,0,0,1-.522,2.651,3.092,3.092,0,0,1-2.785,1.43,3.2,3.2,0,0,1-2.919-1.414,4.415,4.415,0,0,1-.535-2.667v-6.718Z" transform="translate(-1405.412 -1435.48)" fill="#fff"/>
    <path id="Trazado_19" data-name="Trazado 19" d="M1650.136,1591.629v6.732c0,1.743.387,2.562,1.891,2.562,1.417,0,1.8-.818,1.8-2.562v-6.732h1.534v6.718a4.641,4.641,0,0,1-.522,2.651,3.092,3.092,0,0,1-2.785,1.43,3.2,3.2,0,0,1-2.919-1.414,4.415,4.415,0,0,1-.535-2.667v-6.718Z" transform="translate(-1405.412 -1435.48)" fill="#fff"/>
    <path id="Trazado_20" data-name="Trazado 20" d="M1804.934,1602.215v-10.591h1.579l5.2,8.014-.074-8.014h1.52v10.591h-1.475l-5.318-8.252.1,8.252Z" transform="translate(-1553.243 -1435.476)" fill="#fff"/>
    <path id="Trazado_21" data-name="Trazado 21" d="M1804.934,1602.215v-10.591h1.579l5.2,8.014-.074-8.014h1.52v10.591h-1.475l-5.318-8.252.1,8.252Z" transform="translate(-1553.243 -1435.476)" fill="#fff"/>
    <rect id="Rectángulo_1" data-name="Rectángulo 1" width="1.534" height="10.591" transform="translate(261.739 156.148)" fill="#fff"/>
    <rect id="Rectángulo_2" data-name="Rectángulo 2" width="1.534" height="10.591" transform="translate(261.739 156.148)" fill="#fff"/>
    <path id="Trazado_22" data-name="Trazado 22" d="M2048.2,1598.813a5.181,5.181,0,0,1-4.007-1.817,5.522,5.522,0,0,1-1.37-3.754,5.407,5.407,0,0,1,1.654-3.9,5.181,5.181,0,0,1,3.739-1.534,4.918,4.918,0,0,1,4.722,2.948h-1.8a3.444,3.444,0,0,0-2.934-1.414,3.62,3.62,0,0,0-2.621,1.1,4.14,4.14,0,0,0-.091,5.658,3.81,3.81,0,0,0,2.711,1.193,3.374,3.374,0,0,0,2.846-1.342h1.892a5.029,5.029,0,0,1-4.738,2.86" transform="translate(-1778.192 -1431.865)" fill="#fff"/>
    <path id="Trazado_23" data-name="Trazado 23" d="M2048.2,1598.813a5.181,5.181,0,0,1-4.007-1.817,5.522,5.522,0,0,1-1.37-3.754,5.407,5.407,0,0,1,1.654-3.9,5.181,5.181,0,0,1,3.739-1.534,4.918,4.918,0,0,1,4.722,2.948h-1.8a3.444,3.444,0,0,0-2.934-1.414,3.62,3.62,0,0,0-2.621,1.1,4.14,4.14,0,0,0-.091,5.658,3.81,3.81,0,0,0,2.711,1.193,3.374,3.374,0,0,0,2.846-1.342h1.892A5.029,5.029,0,0,1,2048.2,1598.813Z" transform="translate(-1778.192 -1431.865)" fill="#fff"/>
    <rect id="Rectángulo_3" data-name="Rectángulo 3" width="1.534" height="10.591" transform="translate(276.285 156.148)" fill="#fff"/>
    <rect id="Rectángulo_4" data-name="Rectángulo 4" width="1.534" height="10.591" transform="translate(276.285 156.148)" fill="#fff"/>
    <path id="Trazado_24" data-name="Trazado 24" d="M2319.03,1602.226v-10.589h2.458a4.863,4.863,0,0,1,2.532.447,3.051,3.051,0,0,1,1.445,2.65c0,1.906-1.356,3.233-3.694,3.233h-1.222v4.26Zm2.636-5.674c1.505,0,2.25-.476,2.25-1.727,0-1.222-.731-1.773-2.205-1.773h-1.163v3.5Z" transform="translate(-2039.382 -1435.488)" fill="#fff"/>
    <path id="Trazado_25" data-name="Trazado 25" d="M2319.03,1602.226v-10.589h2.458a4.863,4.863,0,0,1,2.532.447,3.051,3.051,0,0,1,1.445,2.65c0,1.906-1.356,3.233-3.694,3.233h-1.222v4.26Zm2.636-5.674c1.505,0,2.25-.476,2.25-1.727,0-1.222-.731-1.773-2.205-1.773h-1.163v3.5Z" transform="translate(-2039.382 -1435.488)" fill="#fff"/>
    <path id="Trazado_26" data-name="Trazado 26" d="M2420.4,1602.211h-1.624l4.142-10.591h1.488l4.142,10.591h-1.683l-1.162-3.084h-4.112Zm3.261-8.6-1.518,4.023h3.009Z" transform="translate(-2133.705 -1435.472)" fill="#fff"/>
    <path id="Trazado_27" data-name="Trazado 27" d="M2420.4,1602.211h-1.624l4.142-10.591h1.488l4.142,10.591h-1.683l-1.162-3.084h-4.112Zm3.261-8.6-1.518,4.023h3.009Z" transform="translate(-2133.705 -1435.472)" fill="#fff"/>
    <path id="Trazado_28" data-name="Trazado 28" d="M2608.779,1602.215v-10.591h1.534v9.132h3.47v1.459Z" transform="translate(-2313.374 -1435.476)" fill="#fff"/>
    <path id="Trazado_29" data-name="Trazado 29" d="M2608.779,1602.215v-10.591h1.534v9.132h3.47v1.459Z" transform="translate(-2313.374 -1435.476)" fill="#fff"/>
    <rect id="Rectángulo_5" data-name="Rectángulo 5" width="1.534" height="10.591" transform="translate(301.628 156.148)" fill="#fff"/>
    <rect id="Rectángulo_6" data-name="Rectángulo 6" width="1.534" height="10.591" transform="translate(301.628 156.148)" fill="#fff"/>
    <path id="Trazado_30" data-name="Trazado 30" d="M2783.7,1602.211V1591.62h3.411a5.047,5.047,0,0,1,5.318,5.332,5.14,5.14,0,0,1-2.13,4.321,5.586,5.586,0,0,1-3.619.938Zm3.351-1.414a3.553,3.553,0,0,0,3.828-3.828c0-2.4-1.489-3.9-4.111-3.9h-1.579v7.732Z" transform="translate(-2478.785 -1435.472)" fill="#fff"/>
    <path id="Trazado_31" data-name="Trazado 31" d="M2783.7,1602.211V1591.62h3.411a5.047,5.047,0,0,1,5.318,5.332,5.14,5.14,0,0,1-2.13,4.321,5.586,5.586,0,0,1-3.619.938Zm3.351-1.414a3.553,3.553,0,0,0,3.828-3.828c0-2.4-1.489-3.9-4.111-3.9h-1.579v7.732Z" transform="translate(-2478.785 -1435.472)" fill="#fff"/>
    <path id="Trazado_32" data-name="Trazado 32" d="M2940.925,1602.211H2939.3l4.142-10.591h1.488l4.142,10.591h-1.683l-1.162-3.084h-4.111Zm3.262-8.6-1.519,4.023h3.009Z" transform="translate(-2625.923 -1435.472)" fill="#fff"/>
    <path id="Trazado_33" data-name="Trazado 33" d="M2940.925,1602.211H2939.3l4.142-10.591h1.488l4.142,10.591h-1.683l-1.162-3.084h-4.111Zm3.262-8.6-1.519,4.023h3.009Z" transform="translate(-2625.923 -1435.472)" fill="#fff"/>
    <path id="Trazado_34" data-name="Trazado 34" d="M3127.954,1602.211V1591.62h3.412a5.046,5.046,0,0,1,5.317,5.332,5.136,5.136,0,0,1-2.13,4.321,5.585,5.585,0,0,1-3.619.938Zm3.351-1.414a3.553,3.553,0,0,0,3.829-3.828c0-2.4-1.49-3.9-4.112-3.9h-1.579v7.732Z" transform="translate(-2804.316 -1435.472)" fill="#fff"/>
    <path id="Trazado_35" data-name="Trazado 35" d="M3127.954,1602.211V1591.62h3.412a5.046,5.046,0,0,1,5.317,5.332,5.136,5.136,0,0,1-2.13,4.321,5.585,5.585,0,0,1-3.619.938Zm3.351-1.414a3.553,3.553,0,0,0,3.829-3.828c0-2.4-1.49-3.9-4.112-3.9h-1.579v7.732Z" transform="translate(-2804.316 -1435.472)" fill="#fff"/>
    <path id="Trazado_36" data-name="Trazado 36" d="M306.818,463.754c-11.355,0-21.1-9.08-22.1-20.941.082-7.806.122-15.82-.138-48.6l-.005-.7h44.164v49.244c-.87,11.162-9.611,20.141-20.333,20.94-.534.039-1.066.059-1.591.059m-20.847-68.86c.254,32.213.213,40.175.13,47.869.958,11.395,11.126,20.371,22.205,19.553,10.047-.749,18.241-9.18,19.056-19.615l0-47.807Z" transform="translate(-115.564 -302.517)" fill="#fff"/>
    <path id="Trazado_37" data-name="Trazado 37" d="M195.549,456.827a1.029,1.029,0,0,0-.2.7l.06.713c-.014.329-.659.326-.674.014l.028-.688a1.036,1.036,0,0,0-.2-.659l-1.713-2.325a.394.394,0,0,1,.068-.539l.455-.371c.085-.125.214-.314.3-.439.562-1.695,1-2.181,1.335-2.164.708.037,1.424,2.347,1.424,2.347a.681.681,0,0,0,.155.18l.58.478a.344.344,0,0,1,.059.472Z" transform="translate(-28.753 -356.948)" fill="#fff"/>
    <path id="Trazado_38" data-name="Trazado 38" d="M230.031,530.237h-.064a.218.218,0,0,1-.217-.218v-1.284a.217.217,0,0,1,.217-.217h.064a.218.218,0,0,1,.218.217v1.284a.218.218,0,0,1-.218.218" transform="translate(-63.718 -430.182)" fill="#fff"/>
    <path id="Trazado_39" data-name="Trazado 39" d="M1109.111,923.592h0a.229.229,0,0,1,.229.229v1.251l1.405-1.906-.555-.454-.037-.03-.026-.045-1.012-1.7-1.021,1.714-.025.042-.039.03-.545.445,1.4,1.9v-1.242a.229.229,0,0,1,.228-.229m.295,2.334.093,1.1c-.013.329-.659.326-.671.016l.042-1.054-1.995-2.706-.158-.214.207-.17.713-.582,1.237-2.076.24-.4.242.405,1.227,2.064.722.593.207.168-.159.214Z" transform="translate(-892.996 -800.223)" fill="#fff"/>
    <path id="Trazado_40" data-name="Trazado 40" d="M1112.42,456.827a1.029,1.029,0,0,0-.2.7l.061.713c-.013.329-.659.326-.672.014l.028-.688a1.037,1.037,0,0,0-.2-.659l-1.713-2.325a.394.394,0,0,1,.068-.539l.457-.371c.084-.125.213-.314.3-.439.561-1.695,1-2.181,1.334-2.164.708.037,1.424,2.347,1.424,2.347a.677.677,0,0,0,.155.18l.58.478a.344.344,0,0,1,.059.472Z" transform="translate(-895.764 -356.948)" fill="#fff"/>
    <path id="Trazado_41" data-name="Trazado 41" d="M1146.9,530.237h-.063a.218.218,0,0,1-.218-.218v-1.284a.218.218,0,0,1,.218-.217h.063a.218.218,0,0,1,.218.217v1.284a.218.218,0,0,1-.218.218" transform="translate(-930.728 -430.182)" fill="#fff"/>
    <path id="Trazado_42" data-name="Trazado 42" d="M195.549,916.787a1.032,1.032,0,0,0-.2.705l.06.712c-.014.33-.659.326-.674.016l.028-.689a1.041,1.041,0,0,0-.2-.659l-1.713-2.325a.392.392,0,0,1,.068-.538l.455-.372c.085-.125.214-.314.3-.439.562-1.693,1-2.181,1.335-2.164.708.038,1.424,2.347,1.424,2.347a.706.706,0,0,0,.155.182l.58.476a.345.345,0,0,1,.059.472Z" transform="translate(-28.753 -791.895)" fill="#fff"/>
    <path id="Trazado_43" data-name="Trazado 43" d="M230.031,990.2h-.064a.218.218,0,0,1-.217-.218V988.7a.218.218,0,0,1,.217-.218h.064a.219.219,0,0,1,.218.218v1.283a.218.218,0,0,1-.218.218" transform="translate(-63.718 -865.128)" fill="#fff"/>
    <path id="Trazado_44" data-name="Trazado 44" d="M226.51,1375.966a1.038,1.038,0,0,0,0-.732l-.251-.67c-.078-.321.545-.493.642-.2l.16.67a1.044,1.044,0,0,0,.374.579l2.283,1.77a.4.4,0,0,1,.082.538l-.338.482-.167.5c-.078,1.783-.366,2.371-.693,2.446-.692.157-2.009-1.87-2.009-1.87a.673.673,0,0,0-.2-.131l-.688-.3a.347.347,0,0,1-.187-.439Z" transform="translate(-59.693 -1229.889)" fill="#fff"/>
    <path id="Trazado_45" data-name="Trazado 45" d="M249.08,1400.443l.062-.017a.217.217,0,0,1,.268.15l.35,1.235a.218.218,0,0,1-.151.268l-.061.017a.22.22,0,0,1-.27-.15l-.349-1.235a.216.216,0,0,1,.15-.268" transform="translate(-81.847 -1254.667)" fill="#fff"/>
    <path id="Trazado_46" data-name="Trazado 46" d="M1074.3,1375.6a1.039,1.039,0,0,0,.457-.572l.222-.68c.139-.3.733-.045.624.247l-.292.624a1.036,1.036,0,0,0-.071.685l.676,2.809a.4.4,0,0,1-.272.47l-.564.166-.446.288c-1.176,1.343-1.768,1.622-2.07,1.476-.639-.309-.4-2.715-.4-2.715a.66.66,0,0,0-.074-.228l-.349-.664a.346.346,0,0,1,.128-.459Z" transform="translate(-859.879 -1229.885)" fill="#fff"/>
    <path id="Trazado_47" data-name="Trazado 47" d="M1115.015,1399.861l.059.025a.219.219,0,0,1,.116.285l-.5,1.183a.218.218,0,0,1-.286.116l-.059-.025a.217.217,0,0,1-.116-.286l.5-1.183a.219.219,0,0,1,.286-.116" transform="translate(-900.084 -1254.125)" fill="#fff"/>
    <path id="Trazado_48" data-name="Trazado 48" d="M424.673,971.328H393.107a.587.587,0,0,1,0-1.175h31.566a.587.587,0,1,1,0,1.175" transform="translate(-217.637 -847.801)" fill="#fff"/>
    <path id="Trazado_49" data-name="Trazado 49" d="M717.678,622.868a.26.26,0,0,1-.259-.259V610.084a.259.259,0,0,1,.518,0v12.525a.26.26,0,0,1-.259.259" transform="translate(-524.868 -507.068)" fill="#fff"/>
    <path id="Trazado_50" data-name="Trazado 50" d="M1435.42,333.09c-1.471,2.619-3.7,3.7-7.144,3.7-5.1,0-8-3.088-8-8.544v-.108h6.174v.143q0,2.585,1.938,2.587c1.437,0,1.867-1.006,1.867-3.089V310.8h6.283v15.076c0,3.123-.108,5.42-1.114,7.216" transform="translate(-1189.499 -224.302)" fill="#fff"/>
    <path id="Trazado_51" data-name="Trazado 51" d="M1764.937,336.309V310.786h13.856v5.636h-7.609v4.128h7.609v5.672h-7.609v4.451h7.609v5.636Z" transform="translate(-1515.421 -224.291)" fill="#fff"/>
    <path id="Trazado_52" data-name="Trazado 52" d="M2051.553,319.189v.287c0,2.081.791,3.086,2.334,3.086,1.508,0,2.405-.789,2.405-2.118,0-2.333-1.759-2.513-4.559-3.769-3.806-1.723-5.744-4.2-5.744-7.286,0-4.56,3.518-7.825,8.687-7.825,4.594,0,7.754,2.943,7.754,7.5v.395h-5.744a2.194,2.194,0,0,0-2.333-2.476,1.866,1.866,0,0,0-1.975,1.9c0,1.9,1.867,2.3,5.134,3.986,3.482,1.793,5.169,4.056,5.169,7.107a8.216,8.216,0,0,1-8.4,8.112c-5.672,0-8.686-2.872-8.686-8.328v-.574Z" transform="translate(-1780.818 -215.57)" fill="#fff"/>
    <path id="Trazado_53" data-name="Trazado 53" d="M2398.514,157.239v15.723c0,2.872.9,4.344,3.015,4.344,2.189,0,3.231-1.437,3.231-4.344V157.239h6.245v15.974c0,6.247-3.8,9.944-9.512,9.944-5.78,0-9.261-3.554-9.261-9.944V157.239Zm2.8-2.333h-2.477l3.445-6.5h4.523Z" transform="translate(-2108.604 -70.743)" fill="#fff"/>
    <path id="Trazado_54" data-name="Trazado 54" d="M2771.268,319.189v.287c0,2.081.791,3.086,2.333,3.086,1.509,0,2.406-.789,2.406-2.118,0-2.333-1.759-2.513-4.559-3.769-3.806-1.723-5.744-4.2-5.744-7.286,0-4.56,3.518-7.825,8.687-7.825,4.594,0,7.754,2.943,7.754,7.5v.395H2776.4a2.193,2.193,0,0,0-2.333-2.476,1.865,1.865,0,0,0-1.973,1.9c0,1.9,1.867,2.3,5.132,3.986,3.482,1.793,5.169,4.056,5.169,7.107a8.215,8.215,0,0,1-8.4,8.112c-5.672,0-8.687-2.872-8.687-8.328v-.574Z" transform="translate(-2461.392 -215.57)" fill="#fff"/>
    <path id="Trazado_55" data-name="Trazado 55" d="M1420.283,1007.532V982.01h8.544l4.881,15.614,4.918-15.614h8.508v25.522h-5.958V990.66l-5.277,16.872h-4.415l-5.277-16.872v16.872Z" transform="translate(-1189.51 -859.013)" fill="#fff"/>
    <path id="Trazado_56" data-name="Trazado 56" d="M1902.518,1007.52H1895.7L1905.5,982h5.1l9.8,25.522H1913.5l-1.256-3.7h-8.436Zm5.528-17.158-2.548,8.185h5.061Z" transform="translate(-1639.069 -859.001)" fill="#fff"/>
    <path id="Trazado_57" data-name="Trazado 57" d="M2332.825,1007.528V982.006h8.471c2.693,0,4.737.179,6.462,1.4a8.2,8.2,0,0,1,3.446,7.141c0,4.128-2.154,7.216-5.78,8.221l6.245,8.758h-7.718l-4.882-8.219v8.219Zm7.466-13.748c3.088,0,4.594-.789,4.594-3.086,0-2.118-1.327-2.98-4.092-2.98h-1.723v6.066Z" transform="translate(-2052.427 -859.009)" fill="#fff"/>
    <path id="Trazado_58" data-name="Trazado 58" d="M2705.88,828.437h6.247v25.522h-6.247Zm2.8-2.333H2706.2l3.445-6.5h4.523Z" transform="translate(-2405.195 -705.44)" fill="#fff"/>
    <path id="Trazado_59" data-name="Trazado 59" d="M2810.438,1007.52h-6.822l9.8-25.522h5.1l9.8,25.522h-6.893l-1.257-3.7h-8.436Zm5.528-17.158-2.548,8.185h5.061Z" transform="translate(-2497.617 -859.001)" fill="#fff"/>
  </g>
</svg>
